<svg xmlns="http://www.w3.org/2000/svg" width="39.783" height="46.804" viewBox="0 0 39.783 46.804">
  <path id="content_copy_FILL0_wght400_GRAD0_opsz24" d="M134.041-842.557a4.507,4.507,0,0,1-3.306-1.375,4.507,4.507,0,0,1-1.375-3.306v-28.082a4.507,4.507,0,0,1,1.375-3.306A4.507,4.507,0,0,1,134.041-880H155.1a4.507,4.507,0,0,1,3.306,1.375,4.507,4.507,0,0,1,1.375,3.306v28.082a4.507,4.507,0,0,1-1.375,3.306,4.507,4.507,0,0,1-3.306,1.375Zm0-4.68H155.1v-28.082H134.041ZM124.68-833.2a4.507,4.507,0,0,1-3.306-1.375A4.507,4.507,0,0,1,120-837.877v-32.763h4.68v32.763h25.742v4.68Zm9.361-14.041v0Z" transform="translate(-120 880)" fill="#bababa"/>
</svg>
