<svg xmlns="http://www.w3.org/2000/svg" width="12.75" height="15" viewBox="0 0 12.75 15">
  <path id="content_copy_FILL0_wght400_GRAD0_opsz24" d="M124.5-868a1.444,1.444,0,0,1-1.059-.441A1.444,1.444,0,0,1,123-869.5v-9a1.444,1.444,0,0,1,.441-1.059A1.444,1.444,0,0,1,124.5-880h6.75a1.444,1.444,0,0,1,1.059.441,1.444,1.444,0,0,1,.441,1.059v9a1.444,1.444,0,0,1-.441,1.059,1.444,1.444,0,0,1-1.059.441Zm0-1.5h6.75v-9H124.5Zm-3,4.5a1.444,1.444,0,0,1-1.059-.441A1.444,1.444,0,0,1,120-866.5V-877h1.5v10.5h8.25v1.5Zm3-4.5v0Z" transform="translate(-120 880)" fill="#ea33c0"/>
</svg>
