<svg xmlns="http://www.w3.org/2000/svg" width="46.279" height="48.715" viewBox="0 0 46.279 48.715">
  <path id="edit_document_FILL0_wght400_GRAD0_opsz24" d="M184.357-831.285v-7.49l13.457-13.4a3.318,3.318,0,0,1,1.218-.792,3.9,3.9,0,0,1,1.34-.244,3.665,3.665,0,0,1,1.4.274,3.693,3.693,0,0,1,1.218.822l2.253,2.253A4.236,4.236,0,0,1,206-848.64a3.515,3.515,0,0,1,.274,1.34,4.157,4.157,0,0,1-.244,1.37,3.268,3.268,0,0,1-.792,1.248l-13.4,13.4ZM202.625-847.3l-2.253-2.253Zm-14.614,12.361h2.314l7.368-7.429-1.1-1.157-1.157-1.1-7.429,7.368Zm-23.139,3.654a4.691,4.691,0,0,1-3.44-1.431,4.691,4.691,0,0,1-1.431-3.44v-38.972a4.691,4.691,0,0,1,1.431-3.44,4.691,4.691,0,0,1,3.44-1.431h19.486l14.614,14.614v7.307H194.1v-4.872H181.922v-12.179h-17.05v38.972h14.614v4.871ZM181.922-855.643ZM196.6-843.525l-1.157-1.1,2.253,2.253Z" transform="translate(-160 880)" fill="#bababa"/>
</svg>
