<svg id="Icon_-_Briefed" data-name="Icon - Briefed" xmlns="http://www.w3.org/2000/svg" width="35" height="35" viewBox="0 0 35 35">
  <path id="Path_266" data-name="Path 266" d="M17.5,0A17.5,17.5,0,1,1,0,17.5,17.5,17.5,0,0,1,17.5,0Z" fill="#ffe348"/>
  <path id="task_FILL0_wght400_GRAD0_opsz24" d="M166.255-865.6l5.085-5.085-1.305-1.3-3.8,3.8-1.89-1.89L163.06-868.8ZM161.8-862a1.733,1.733,0,0,1-1.271-.529A1.733,1.733,0,0,1,160-863.8v-14.4a1.734,1.734,0,0,1,.529-1.271A1.733,1.733,0,0,1,161.8-880H169l5.4,5.4v10.8a1.733,1.733,0,0,1-.529,1.271A1.733,1.733,0,0,1,172.6-862Zm6.3-11.7v-4.5h-6.3v14.4h10.8v-9.9Zm-6.3-4.5v0Z" transform="translate(-149 889)"/>
</svg>
