<svg id="Icon_-_In_Progress" data-name="Icon - In Progress" xmlns="http://www.w3.org/2000/svg" width="35" height="35" viewBox="0 0 35 35">
  <path id="Path_270" data-name="Path 270" d="M17.5,0A17.5,17.5,0,1,1,0,17.5,17.5,17.5,0,0,1,17.5,0Z" fill="#ffab48"/>
  <path id="emoji_objects_FILL0_wght400_GRAD0_opsz24" d="M196.525-862a2.027,2.027,0,0,1-1.058-.281,2.046,2.046,0,0,1-.742-.754,1.733,1.733,0,0,1-1.271-.529,1.733,1.733,0,0,1-.529-1.271v-3.195a6.52,6.52,0,0,1-2.126-2.318,6.342,6.342,0,0,1-.8-3.127,6.294,6.294,0,0,1,1.9-4.624,6.294,6.294,0,0,1,4.624-1.9,6.294,6.294,0,0,1,4.624,1.9,6.294,6.294,0,0,1,1.9,4.624,6.305,6.305,0,0,1-.8,3.15,6.578,6.578,0,0,1-2.126,2.3v3.195a1.733,1.733,0,0,1-.529,1.271,1.733,1.733,0,0,1-1.271.529,2.046,2.046,0,0,1-.742.754A2.028,2.028,0,0,1,196.525-862Zm-1.8-2.835h3.6v-.81h-3.6Zm0-1.71h3.6v-.855h-3.6Zm-.18-2.655h1.305v-2.43l-1.98-1.98.945-.945,1.71,1.71,1.71-1.71.945.945-1.98,1.98v2.43h1.3a4.927,4.927,0,0,0,1.98-1.721,4.469,4.469,0,0,0,.765-2.554,4.561,4.561,0,0,0-1.373-3.353,4.561,4.561,0,0,0-3.352-1.373,4.561,4.561,0,0,0-3.353,1.373,4.561,4.561,0,0,0-1.372,3.353,4.469,4.469,0,0,0,.765,2.554A4.927,4.927,0,0,0,194.545-869.2ZM196.525-872.845ZM196.525-873.7Z" transform="translate(-179 889)"/>
</svg>
