<svg id="Icon_-_Trafficking" data-name="Icon - Trafficking" xmlns="http://www.w3.org/2000/svg" width="35" height="35" viewBox="0 0 35 35">
  <g id="Group_1960" data-name="Group 1960" transform="translate(0 0.155)">
    <circle id="Ellipse_39" data-name="Ellipse 39" cx="17.5" cy="17.5" r="17.5" transform="translate(0 -0.155)" fill="#84a0ff"/>
  </g>
  <path id="downloading_FILL0_wght400_GRAD0_opsz24" d="M8.075,18a8.748,8.748,0,0,1-3.192-.959A9.083,9.083,0,0,1,.62,12.293,8.812,8.812,0,0,1,0,9,8.737,8.737,0,0,1,2.312,2.944,8.849,8.849,0,0,1,8.1,0V1.8A7.11,7.11,0,0,0,3.586,4.229,7.028,7.028,0,0,0,1.8,9a7.027,7.027,0,0,0,1.782,4.771A7.093,7.093,0,0,0,8.075,16.2Zm.9-4.466L4.444,8.977,5.729,7.692l2.346,2.346V4.511h1.8v5.526L12.2,7.714l1.286,1.308ZM9.88,18V16.2a7.205,7.205,0,0,0,1.861-.519,7.786,7.786,0,0,0,1.658-.97l1.308,1.308a9.706,9.706,0,0,1-2.278,1.342A8.944,8.944,0,0,1,9.88,18ZM13.444,3.293a8.335,8.335,0,0,0-1.68-.97A7.2,7.2,0,0,0,9.9,1.8V0a8.939,8.939,0,0,1,2.549.643,9.274,9.274,0,0,1,2.256,1.342ZM15.97,14.707l-1.263-1.286a7.113,7.113,0,0,0,.947-1.658,7.811,7.811,0,0,0,.5-1.861H18a10.627,10.627,0,0,1-.677,2.56A8.236,8.236,0,0,1,15.97,14.707ZM16.15,8.1a7.811,7.811,0,0,0-.5-1.861,7.113,7.113,0,0,0-.947-1.658L15.97,3.293a8.7,8.7,0,0,1,1.376,2.244A8.851,8.851,0,0,1,18,8.1Z" transform="translate(27 27) rotate(180)"/>
</svg>
