<svg id="Icon_-_Live" data-name="Icon - Live" xmlns="http://www.w3.org/2000/svg" width="35" height="35" viewBox="0 0 35 35">
  <circle id="Ellipse_42" data-name="Ellipse 42" cx="17.5" cy="17.5" r="17.5" fill="#4ed5e6"/>
  <path id="stream_FILL0_wght400_GRAD0_opsz24" d="M81.8-869.2a1.733,1.733,0,0,1-1.271-.529A1.733,1.733,0,0,1,80-871a1.733,1.733,0,0,1,.529-1.271A1.733,1.733,0,0,1,81.8-872.8a1.733,1.733,0,0,1,1.271.529A1.733,1.733,0,0,1,83.6-871a1.733,1.733,0,0,1-.529,1.271A1.733,1.733,0,0,1,81.8-869.2Zm1.485,5.13-1.26-1.26,3.915-3.915,1.26,1.26Zm2.7-8.73-3.915-3.915,1.26-1.26,3.915,3.915ZM89-862a1.733,1.733,0,0,1-1.271-.529A1.733,1.733,0,0,1,87.2-863.8a1.733,1.733,0,0,1,.529-1.271A1.733,1.733,0,0,1,89-865.6a1.733,1.733,0,0,1,1.271.529A1.733,1.733,0,0,1,90.8-863.8a1.733,1.733,0,0,1-.529,1.271A1.733,1.733,0,0,1,89-862Zm0-14.4a1.733,1.733,0,0,1-1.271-.529A1.734,1.734,0,0,1,87.2-878.2a1.733,1.733,0,0,1,.529-1.271A1.733,1.733,0,0,1,89-880a1.733,1.733,0,0,1,1.271.529A1.733,1.733,0,0,1,90.8-878.2a1.734,1.734,0,0,1-.529,1.271A1.733,1.733,0,0,1,89-876.4Zm3.015,3.645-1.26-1.305,3.96-3.915,1.26,1.26Zm2.7,8.685L90.8-867.985l1.26-1.26,3.915,3.915ZM96.2-869.2a1.733,1.733,0,0,1-1.271-.529A1.733,1.733,0,0,1,94.4-871a1.733,1.733,0,0,1,.529-1.271A1.733,1.733,0,0,1,96.2-872.8a1.733,1.733,0,0,1,1.271.529A1.733,1.733,0,0,1,98-871a1.733,1.733,0,0,1-.529,1.271A1.733,1.733,0,0,1,96.2-869.2Z" transform="translate(-71 889)"/>
</svg>
