<svg xmlns="http://www.w3.org/2000/svg" width="18" height="12.273" viewBox="0 0 18 12.273">
  <path id="visibility_FILL0_wght400_GRAD0_opsz24" d="M49-790.182a3.55,3.55,0,0,0,2.608-1.074,3.551,3.551,0,0,0,1.074-2.608,3.551,3.551,0,0,0-1.074-2.608A3.55,3.55,0,0,0,49-797.545a3.55,3.55,0,0,0-2.608,1.074,3.551,3.551,0,0,0-1.074,2.608,3.551,3.551,0,0,0,1.074,2.608A3.55,3.55,0,0,0,49-790.182Zm0-1.473a2.13,2.13,0,0,1-1.565-.644,2.13,2.13,0,0,1-.644-1.565,2.13,2.13,0,0,1,.644-1.565A2.13,2.13,0,0,1,49-796.073a2.13,2.13,0,0,1,1.565.644,2.13,2.13,0,0,1,.644,1.565,2.13,2.13,0,0,1-.644,1.565A2.13,2.13,0,0,1,49-791.655Zm0,3.927a9.472,9.472,0,0,1-5.441-1.667A9.476,9.476,0,0,1,40-793.864a9.477,9.477,0,0,1,3.559-4.469A9.472,9.472,0,0,1,49-800a9.472,9.472,0,0,1,5.441,1.667A9.477,9.477,0,0,1,58-793.864a9.476,9.476,0,0,1-3.559,4.469A9.472,9.472,0,0,1,49-787.727ZM49-793.864Zm0,4.5a7.809,7.809,0,0,0,4.244-1.217,8,8,0,0,0,2.956-3.283,8,8,0,0,0-2.956-3.283A7.809,7.809,0,0,0,49-798.364a7.809,7.809,0,0,0-4.244,1.217,8,8,0,0,0-2.956,3.283,8,8,0,0,0,2.956,3.283A7.809,7.809,0,0,0,49-789.364Z" transform="translate(-40 800)" fill="#ea33c0"/>
</svg>
